<svg width="38" height="38" viewBox="0 0 38 38" fill="none" xmlns="http://www.w3.org/2000/svg">
<path d="M12.7628 15.0702C17.7381 12.6907 21.6319 8.65276 23.8672 3.60532C22.4251 2.09109 20.5503 1.00949 18.5313 0.360535L17.4497 3.8147e-06C17.3776 0.144216 17.3055 0.360544 17.3055 0.504756C15.575 5.40798 12.0418 9.37382 7.28274 11.6091C3.96585 13.1955 1.51423 16.0797 0.360531 19.5408L0 20.6224C0.144213 20.6945 0.360535 20.7666 0.504747 20.7666C1.87477 21.2713 3.24478 21.9203 4.5427 22.7135C6.34535 19.4687 9.2296 16.7287 12.7628 15.0702Z" fill="url(#paint0_linear_207_19)"/>
<path d="M33.6736 15.3586C31.0057 19.3966 27.3283 22.6414 22.7856 24.8046C19.1082 26.5351 16.296 29.7799 14.9981 33.6736L14.6376 34.8994C16.0076 36.1252 17.666 37.0626 19.4687 37.6395L20.5503 38C20.6224 37.8558 20.6945 37.6395 20.6945 37.4953C22.425 32.592 25.9583 28.6262 30.7173 26.3909C34.0342 24.8046 36.5579 21.9203 37.6395 18.4592L38 17.3776C36.4858 16.945 35.0436 16.2239 33.6736 15.3586Z" fill="url(#paint1_linear_207_19)"/>
<path d="M11.7533 31.1499C13.556 26.8235 16.8729 23.2903 21.1272 21.2713C25.0209 19.3966 28.2657 16.5123 30.501 12.9791C28.8425 11.3928 27.4725 9.59013 26.463 7.42694C23.7951 12.3302 19.6129 16.296 14.4934 18.7476C11.537 20.1176 9.15752 22.4972 7.71539 25.3814C9.30173 26.8956 10.5996 28.7704 11.6091 30.8615C11.6091 30.8615 11.6812 31.0057 11.7533 31.1499Z" fill="url(#paint2_linear_207_19)"/>
<defs>
<linearGradient id="paint0_linear_207_19" x1="11.9336" y1="3.8147e-06" x2="11.9336" y2="22.7135" gradientUnits="userSpaceOnUse">
<stop stop-color="#D53D00"/>
<stop offset="1" stop-color="#D27854"/>
</linearGradient>
<linearGradient id="paint1_linear_207_19" x1="26.3188" y1="15.3586" x2="26.3188" y2="38" gradientUnits="userSpaceOnUse">
<stop stop-color="#D53D00"/>
<stop offset="1" stop-color="#D27854"/>
</linearGradient>
<linearGradient id="paint2_linear_207_19" x1="19.1082" y1="7.42694" x2="19.1082" y2="31.1499" gradientUnits="userSpaceOnUse">
<stop stop-color="#D53D00"/>
<stop offset="1" stop-color="#D27854"/>
</linearGradient>
</defs>
</svg>
