<svg width="113" height="38" viewBox="0 0 113 38" fill="none" xmlns="http://www.w3.org/2000/svg">
<path d="M12.7628 15.0702C17.7381 12.6907 21.6319 8.65276 23.8672 3.60532C22.4251 2.09109 20.5503 1.00949 18.5313 0.360535L17.4497 3.8147e-06C17.3776 0.144216 17.3055 0.360544 17.3055 0.504756C15.575 5.40798 12.0418 9.37382 7.28274 11.6091C3.96585 13.1955 1.51423 16.0797 0.360531 19.5408L0 20.6224C0.144213 20.6945 0.360535 20.7666 0.504747 20.7666C1.87477 21.2713 3.24478 21.9203 4.5427 22.7135C6.34535 19.4687 9.2296 16.7287 12.7628 15.0702Z" fill="url(#paint0_linear_207_25)"/>
<path d="M33.6736 15.3586C31.0057 19.3966 27.3283 22.6414 22.7856 24.8046C19.1082 26.5351 16.296 29.7799 14.9981 33.6736L14.6376 34.8994C16.0076 36.1252 17.666 37.0626 19.4687 37.6395L20.5503 38C20.6224 37.8558 20.6945 37.6395 20.6945 37.4953C22.425 32.592 25.9583 28.6262 30.7173 26.3909C34.0342 24.8046 36.5579 21.9203 37.6395 18.4592L38 17.3776C36.4858 16.945 35.0436 16.2239 33.6736 15.3586Z" fill="url(#paint1_linear_207_25)"/>
<path d="M11.7533 31.1499C13.556 26.8235 16.8729 23.2903 21.1272 21.2713C25.0209 19.3966 28.2657 16.5123 30.501 12.9791C28.8425 11.3928 27.4725 9.59013 26.463 7.42694C23.7951 12.3302 19.6129 16.296 14.4934 18.7476C11.537 20.1176 9.15752 22.4972 7.71539 25.3814C9.30173 26.8956 10.5996 28.7704 11.6091 30.8615C11.6091 30.8615 11.6812 31.0057 11.7533 31.1499Z" fill="url(#paint2_linear_207_25)"/>
<path d="M51.872 26V8.72H63.032V11.576H55.088V15.896H61.952V18.488H55.088V26H51.872ZM63.2081 19.448C63.2081 15.824 65.5361 12.512 69.6881 12.512C73.8401 12.512 76.1681 15.824 76.1681 19.472C76.1681 23.432 73.3601 26.264 69.6881 26.264C65.9921 26.264 63.2081 23.432 63.2081 19.448ZM69.6881 23.552C71.7761 23.552 73.2161 21.752 73.2161 19.4C73.2161 17.024 71.8001 15.224 69.6881 15.224C67.5761 15.224 66.1601 17.024 66.1601 19.4C66.1601 21.752 67.5761 23.552 69.6881 23.552ZM77.3096 12.8H80.2616V14.768C80.9816 12.992 82.3736 12.488 83.5976 12.488C84.1976 12.488 84.7256 12.608 85.1576 12.776V15.848C84.6056 15.56 83.9336 15.392 83.2856 15.392C81.7496 15.392 80.2856 16.304 80.2856 18.368V26.024H77.3096V12.8ZM85.3378 27.104H88.3858C88.3858 28.568 89.5858 29.456 91.5058 29.456C93.4498 29.456 94.5298 28.544 94.5298 27.032V23.312C93.9538 25.064 92.3698 26.312 90.5458 26.312C87.3058 26.312 84.9058 23.408 84.9058 19.496C84.9058 15.68 87.1858 12.512 90.4018 12.512C92.2498 12.512 93.7378 13.544 94.5058 15.584V12.776H97.5778V27.128C97.5778 30.128 95.1538 32.12 91.4818 32.12C87.6418 32.12 85.3378 29.984 85.3378 27.104ZM87.9538 19.4C87.9538 21.656 89.2258 23.552 91.2418 23.552C93.2338 23.552 94.5058 21.656 94.5058 19.4C94.5058 17.144 93.2578 15.296 91.2418 15.296C89.2258 15.296 87.9538 17.144 87.9538 19.4ZM111.402 19.976H101.658C101.73 22.4 103.29 23.792 105.21 23.792C106.65 23.792 107.874 23 108.33 21.608H111.258C110.682 24.512 108.186 26.24 105.234 26.24C101.658 26.24 98.6818 23.648 98.6818 19.472C98.6818 15.632 101.202 12.512 105.162 12.512C109.338 12.512 111.402 15.56 111.402 19.976ZM101.802 17.792H108.138C107.802 15.992 106.746 15.008 105.162 15.008C103.602 15.008 102.162 15.992 101.802 17.792Z" fill="#050505"/>
<defs>
<linearGradient id="paint0_linear_207_25" x1="11.9336" y1="3.8147e-06" x2="11.9336" y2="22.7135" gradientUnits="userSpaceOnUse">
<stop stop-color="#D53D00"/>
<stop offset="1" stop-color="#D27854"/>
</linearGradient>
<linearGradient id="paint1_linear_207_25" x1="26.3188" y1="15.3586" x2="26.3188" y2="38" gradientUnits="userSpaceOnUse">
<stop stop-color="#D53D00"/>
<stop offset="1" stop-color="#D27854"/>
</linearGradient>
<linearGradient id="paint2_linear_207_25" x1="19.1082" y1="7.42694" x2="19.1082" y2="31.1499" gradientUnits="userSpaceOnUse">
<stop stop-color="#D53D00"/>
<stop offset="1" stop-color="#D27854"/>
</linearGradient>
</defs>
</svg>
